<?xml version="1.0" standalone="no"?>
<!DOCTYPE svg PUBLIC "-//W3C//DTD SVG 20010904//EN"
 "http://www.w3.org/TR/2001/REC-SVG-20010904/DTD/svg10.dtd">
<svg version="1.0" xmlns="http://www.w3.org/2000/svg"
 width="1083.000000pt" height="1280.000000pt" viewBox="0 0 1083.000000 1280.000000"
 preserveAspectRatio="xMidYMid meet">
  <metadata>
    Created by potrace 1.15, written by Peter Selinger 2001-2017
  </metadata>
  <defs>
    <linearGradient id="fire" x1="0%" y1="0%" x2="0%" y2="100%">
      <stop offset="0%" style="stop-color:rgb(255,255,0);stop-opacity:1"/>
      <stop offset="100%" style="stop-color:rgb(255,0,0);stop-opacity:1"/>
    </linearGradient>
    <linearGradient id="water" x1="0%" y1="0%" x2="0%" y2="100%">
      <stop offset="0%" style="stop-color:rgb(100,100,255);stop-opacity:1"/>
      <stop offset="50%" style="stop-color:rgb(75,75,255);stop-opacity:1"/>
      <stop offset="100%" style="stop-color:rgb(0,0,255);stop-opacity:1"/>
    </linearGradient>
    <linearGradient id="air" x1="0%" y1="0%" x2="0%" y2="100%">
      <stop offset="0%" style="stop-color:rgb(200,200,255);stop-opacity:1"/>
      <stop offset="100%" style="stop-color:purple;stop-opacity:1"/>
    </linearGradient>
    <linearGradient id="earth" x1="0%" y1="0%" x2="0%" y2="100%">
      <stop offset="0%" style="stop-color:#D68B40;stop-opacity:1"/>
      <stop offset="100%" style="stop-color:#964B00;stop-opacity:1"/>
    </linearGradient>
    <linearGradient id="mindToEye" x1="0%" y1="0%" x2="100%" y2="0%">
      <stop offset="0%" style="stop-color:#000000"/> 
      <stop offset="100%" style="stop-color:#ccddee"/> 
    </linearGradient>
    <linearGradient id="eyeToMouth" x1="0%" y1="0%" x2="0%" y2="100%">
      <stop offset="0%" style="stop-color:#000000"/> 
      <stop offset="100%" style="stop-color:#ccddee"/> 
    </linearGradient>
    <linearGradient id="mouthToMind" x1="100%" y1="0%" x2="0%" y2="0%">
      <stop offset="0%" style="stop-color:#000000"/> 
      <stop offset="100%" style="stop-color:#ccddee"/> 
    </linearGradient>
  </defs>
  <g transform="translate(0.000000,1280.000000) scale(0.100000,-0.100000)"
  fill="#000000" stroke="none" id="head">
    <path d="M4190 12790 c-880 -54 -1871 -364 -2513 -787 -355 -234 -719 -630
    -1022 -1113 -467 -743 -647 -1371 -649 -2255 -2 -721 109 -1241 449 -2100 102
    -258 138 -345 377 -905 510 -1192 703 -1668 777 -1910 79 -260 114 -401 103
    -412 -7 -7 -4 -16 7 -27 11 -11 31 -81 54 -192 130 -617 187 -1217 174 -1854
    -8 -390 -33 -710 -86 -1095 -10 -74 -17 -136 -16 -138 5 -5 5329 18 5334 24 3
    2 11 129 18 282 20 448 30 496 133 651 183 272 318 330 966 406 1266 151 1675
    309 1818 704 78 216 80 553 8 1218 l-8 72 79 113 c93 131 132 212 146 296 12
    72 0 131 -34 176 -32 42 -31 57 2 97 22 26 28 44 31 97 5 78 -3 121 -73 362
    -78 269 -105 405 -120 605 -7 100 10 255 34 311 30 66 116 122 295 191 202 78
    284 134 327 220 20 41 23 63 23 153 0 118 -8 144 -76 244 -83 122 -341 426
    -716 842 -363 404 -470 540 -513 654 -24 63 -39 392 -39 858 -1 467 -15 918
    -35 1064 -34 256 -168 668 -326 997 -166 346 -335 593 -579 845 -393 406 -905
    713 -1640 984 -494 182 -907 270 -1475 312 -186 14 -1051 21 -1235 10z"/>
  </g>
  <!-- This section adds interaction markers for the sources. -->
  <polygon points="400 620, 650 470, 650 330, 400 580" fill="url(#mindToEye)" />
  <polygon points="760 500, 750 850, 850 850, 780 500" fill="url(#eyeToMouth)" />
  <polygon points="750 890, 370 560, 330 640, 750 910" fill="url(#mouthToMind)" />
  <!-- This is the pull from the MIND section. -->
  <circle cx="300" cy="600" r="150" fill="white"/>

  <polygon points="200 525, 300 700, 400 525, 200 525, 250 612, 350 612, 400 525" stroke="url(#earth)" stroke-width="10" fill="white"/>
  <!-- UNCOMMENT THE POLYGONS TO ADD THE CORRECT ELEMENT
        FIRE
  <polygon points="200 675, 300 500, 400 675" stroke="url(#fire)" stroke-width="10" fill="white"/>
        AIR
  <polygon points="200 675, 300 500, 400 675, 200 675, 250 588, 350 588, 250 588" stroke="url(#air)" stroke-width="10" fill="white"/>
        WATER
  <polygon points="200 525, 300 700, 400 525" stroke="url(#water)" stroke-width="10" fill="white"/>
        EARTH
  <polygon points="200 525, 300 700, 400 525, 200 525, 250 612, 350 612, 400 525" stroke="url(#earth)" stroke-width="10" fill="white"/>
  -->

  <!-- This is the pull from the EYES section. -->
  <circle cx="750" cy="400" r="150" fill="white" />

  <polygon points="650 325, 750 500, 850 325, 650 325, 700 412, 800 412, 850 325" stroke="url(#earth)" stroke-width="10" fill="white"/>
  <!-- UNCOMMENT THE POLYGONS TO ADD THE CORRECT ELEMENT
        FIRE
  <polygon points="650 475, 750 300, 850 475" stroke="url(#fire)" stroke-width="10" fill="white"/>
        AIR
  <polygon points="650 475, 750 300, 850 475, 650 475, 700 388, 800 388, 700 388" stroke="url(#air)" stroke-width="10" fill="white"/>
        WATER
  <polygon points="650 325, 750 500, 850 325" stroke="url(#water)" stroke-width="10" fill="white"/>
        EARTH
  <polygon points="650 325, 750 500, 850 325, 650 325, 700 412, 800 412, 850 325" stroke="url(#earth)" stroke-width="10" fill="white"/>
  -->
  <!-- This is the pull frmo the MOUTH section.-->
  <circle cx="800" cy="900" r="150" fill="white" />

  <polygon points="700 975, 800 800, 900 975, 700 975, 750 888, 850 888, 750 888" stroke="url(#air)" stroke-width="10" fill="white"/>
  <!-- UNCOMMENT THE POLYGONS TO ADD THE CORRECT ELEMENT
        FIRE
  <polygon points="700 975, 800 800, 900 975" stroke="url(#fire)" stroke-width="10" fill="white"/>
        AIR
  <polygon points="700 975, 800 800, 900 975, 700 975, 750 888, 850 888, 750 888" stroke="url(#air)" stroke-width="10" fill="white"/>
        WATER
  <polygon points="700 825, 800 1000, 900 825" stroke="url(#water)" stroke-width="10" fill="white"/>
        EARTH
  <polygon points="700 825, 800 1000, 900 825, 700 825, 750 912, 850 912, 900 825" stroke="url(#earth)" stroke-width="10" fill="white"/>
  -->

</svg>
